<svg width="4691" height="2464" viewBox="0 0 4691 2464" fill="none" xmlns="http://www.w3.org/2000/svg">
<path d="M1295.97 2463.11C505.892 2463.11 0.929681 2023.41 0.929681 1274.56C0.929681 542.879 567.724 0.130407 1374.98 0.130407C1670.4 0.130407 2013.91 86.0082 2147.88 171.886L2161.62 580.665L2127.27 587.535C1993.3 274.94 1666.96 65.3976 1258.18 65.3976C711.998 65.3976 289.479 429.52 289.479 1130.28C286.044 1776.08 677.647 2394.41 1392.15 2394.41C1763.14 2394.41 2051.69 2198.6 2185.66 1827.61L2223.45 1831.05L2168.49 2277.61C2007.04 2366.92 1680.7 2463.11 1295.97 2463.11ZM2543.64 2428.76V2384.1C2646.69 2353.18 2681.04 2274.18 2681.04 1992.5V460.436C2681.04 178.756 2646.69 99.7487 2543.64 68.8326V24.1761H3100.13V68.8326C2993.64 99.7487 2962.72 178.756 2962.72 460.436V1126.85H4271.5V460.436C4271.5 178.756 4237.15 99.7487 4134.1 68.8326V24.1761H4690.59V68.8326C4584.1 99.7487 4553.18 178.756 4553.18 460.436V1992.5C4553.18 2274.18 4584.1 2353.18 4690.59 2384.1V2428.76H4134.1V2384.1C4237.15 2353.18 4271.5 2274.18 4271.5 1992.5V1181.81H2962.72V1992.5C2962.72 2274.18 2993.64 2353.18 3100.13 2384.1V2428.76H2543.64Z" fill="#B19B75"/>
</svg>
